<svg width="31" height="22" viewBox="0 0 31 22" fill="none" xmlns="http://www.w3.org/2000/svg">
<path d="M3.87291 20.9307C1.61921 22.2325 0.000244141 21.1477 0.000244141 19.2181C0.000244141 17.164 0.000244141 11.0005 0.000244141 11.0005C0.000244141 11.0005 0.000244141 4.83711 0.000244141 2.78297C0.000244141 0.853385 1.61821 -0.231443 3.87291 1.07035C7.38302 3.09737 17.9123 9.18044 17.9123 9.18044C19.3124 9.98904 19.3124 12.011 17.9123 12.8196C17.9123 12.8206 7.38302 18.9037 3.87291 20.9307Z" fill="#00C1FF"/>
<path d="M15.462 20.9293C13.2083 22.2311 11.5894 21.1462 11.5894 19.2166C11.5894 17.1625 11.5894 10.9991 11.5894 10.9991C11.5894 10.9991 11.5894 4.83565 11.5894 2.78151C11.5894 0.85192 13.2073 -0.232908 15.462 1.06889C18.8948 3.05171 29.1931 9.00118 29.1931 9.00118C30.7308 9.88914 30.7308 12.109 29.1931 12.997C29.1921 12.997 18.8948 18.9464 15.462 20.9293Z" fill="#BCEC30"/>
<mask id="mask0_1_2222" style="mask-type:alpha" maskUnits="userSpaceOnUse" x="11" y="0" width="20" height="22">
<path d="M15.462 20.9293C13.2083 22.2311 11.5894 21.1462 11.5894 19.2166C11.5894 17.1625 11.5894 10.9991 11.5894 10.9991C11.5894 10.9991 11.5894 4.83565 11.5894 2.78151C11.5894 0.85192 13.2073 -0.232908 15.462 1.06889C18.8948 3.05171 29.1931 9.00118 29.1931 9.00118C30.7308 9.88914 30.7308 12.109 29.1931 12.997C29.1921 12.997 18.8948 18.9464 15.462 20.9293Z" fill="#6FE4FF"/>
</mask>
<g mask="url(#mask0_1_2222)">
<g filter="url(#filter0_f_1_2222)">
<path d="M3.87328 20.9307C1.61958 22.2325 0.000610352 21.1477 0.000610352 19.2181C0.000610352 17.164 0.000610352 11.0005 0.000610352 11.0005C0.000610352 11.0005 0.000610352 4.83711 0.000610352 2.78297C0.000610352 0.853385 1.61857 -0.231443 3.87328 1.07035C7.38339 3.09737 17.9127 9.18044 17.9127 9.18044C19.3127 9.98904 19.3127 12.011 17.9127 12.8196C17.9127 12.8206 7.38339 18.9037 3.87328 20.9307Z" fill="#99D100"/>
</g>
</g>
<defs>
<filter id="filter0_f_1_2222" x="-8.92884" y="-8.42799" width="36.8211" height="38.857" filterUnits="userSpaceOnUse" color-interpolation-filters="sRGB">
<feFlood flood-opacity="0" result="BackgroundImageFix"/>
<feBlend mode="normal" in="SourceGraphic" in2="BackgroundImageFix" result="shape"/>
<feGaussianBlur stdDeviation="4.46473" result="effect1_foregroundBlur_1_2222"/>
</filter>
</defs>
</svg>
