<svg width="103" height="22" viewBox="0 0 103 22" fill="#000" xmlns="http://www.w3.org/2000/svg">
<path d="M0.690259 14.6675L1.08287 13.7735C1.35055 13.1656 1.83239 13.0047 2.43915 13.4517C3.59913 14.3099 5.50863 14.9357 8.06058 14.9357C10.2378 14.9357 11.1658 14.3814 11.1658 13.7199C11.1658 12.9689 10.3984 12.7722 9.13133 12.6113L6.24031 12.2358C2.76037 11.771 1.01148 10.5194 1.01148 8.33801C1.01148 5.99574 2.92099 4.13623 7.34675 4.13623C9.80947 4.13623 11.3978 4.51171 12.4328 4.90507C13.5749 5.35206 13.7356 5.72754 13.7356 6.6573V7.87313C13.7356 8.62409 13.4679 8.87441 12.7362 8.87441H11.9153C11.1658 8.87441 10.9159 8.60621 10.9159 7.87313V7.47977C10.4341 7.31885 9.23841 7.08641 7.84643 7.08641C5.40156 7.08641 4.22373 7.53341 4.22373 8.28437C4.22373 8.83865 4.93756 9.16048 6.24031 9.33928L9.0778 9.71476C12.5042 10.1439 14.3245 11.1809 14.3245 13.6841C14.3245 16.223 11.9153 17.8501 7.61444 17.8501C4.45573 17.8501 1.92162 16.8488 0.904409 15.9191C0.547492 15.5615 0.493955 15.1145 0.690259 14.6675Z"/>
<path d="M32.0263 17.6352H30.5629C29.8491 17.6352 29.6171 17.5279 29.2602 16.9915L26.5119 12.9328C26.1193 12.3785 25.8159 12.2354 24.995 12.2354H22.2468V16.6339C22.2468 17.3849 21.9791 17.6352 21.2474 17.6352H20.1945C19.445 17.6352 19.1951 17.367 19.1951 16.6339V3.43854H18.2136C17.4641 3.43854 17.2142 3.17034 17.2142 2.43726V1.54327C17.2142 0.792311 17.4819 0.541992 18.2136 0.541992H21.2652C22.0148 0.541992 22.2646 0.810191 22.2646 1.54327V9.26738H24.7273C25.5482 9.26738 25.8338 9.14223 26.2442 8.57007L28.5463 5.01197C28.9211 4.45769 29.1531 4.35041 29.8669 4.35041H31.3303C32.1333 4.35041 32.2761 4.99409 31.83 5.65564L29.2602 9.55346C28.9925 9.92894 28.6713 10.3223 28.3679 10.6441C28.6891 10.9123 29.1352 11.3593 29.3137 11.6275L32.5259 16.3657C32.9721 16.9915 32.8115 17.6352 32.0263 17.6352Z"/>
<path d="M37.248 20.0667V19.1906C37.248 18.4396 37.5157 18.1893 38.2474 18.1893H39.5144C40.2818 18.1893 40.6565 18.0284 40.9421 17.4205L41.1027 17.0808L35.0351 5.584C34.6603 4.88668 34.9637 4.36816 35.7489 4.36816H37.1231C37.8369 4.36816 38.1581 4.49332 38.4258 5.01184L40.9599 10.2328C41.5488 11.4307 42.2091 12.8075 42.7267 14.0054C43.262 12.8432 43.8688 11.5022 44.4399 10.3401L47.0275 5.01184C47.2595 4.5112 47.6164 4.36816 48.3302 4.36816H49.7044C50.5074 4.36816 50.793 4.90456 50.4182 5.584L43.5119 18.7257C42.7088 20.2455 41.7987 21.0859 39.7286 21.0859H38.2117C37.4978 21.0859 37.248 20.8177 37.248 20.0667Z"/>
<path d="M69.0803 11.0021C69.0803 15.2218 65.9572 17.8501 61.7456 17.8501C59.9254 17.8501 58.5334 17.4031 57.5519 16.8488V20.4606C57.5519 21.2115 57.2842 21.4619 56.5525 21.4619H55.4996C54.7501 21.4619 54.5002 21.1937 54.5002 20.4606V7.26521H53.5187C52.7692 7.26521 52.5193 6.99701 52.5193 6.26394V5.36994C52.5193 4.61899 52.787 4.36867 53.5187 4.36867H56.0885C56.838 4.36867 57.0879 4.63687 57.0879 5.36994V5.44146C58.0872 4.77991 59.6041 4.13623 61.7456 4.13623C65.9572 4.15411 69.0803 6.78246 69.0803 11.0021ZM65.9037 11.0021C65.9037 8.53469 63.9228 7.15793 61.4601 7.15793C59.6934 7.15793 58.2479 7.90889 57.5697 8.51681V13.5053C58.2657 14.1132 59.6934 14.8642 61.4601 14.8642C63.9228 14.8463 65.9037 13.4695 65.9037 11.0021Z"/>
<path d="M85.7054 9.96527C85.7054 10.7162 85.4377 10.9665 84.706 10.9665H83.6531C82.9036 10.9665 82.6537 10.752 82.6537 9.96527C82.6537 7.99848 81.9042 7.12236 80.1196 7.12236C78.4243 7.12236 77.0145 8.17728 76.2292 9.46463V16.6345C76.2292 17.3854 75.9616 17.6357 75.2299 17.6357H74.177C73.4274 17.6357 73.1776 17.3675 73.1776 16.6345V7.2654H72.1961C71.4466 7.2654 71.1967 6.9972 71.1967 6.26413V5.37013C71.1967 4.61917 71.4644 4.36886 72.1961 4.36886H74.7659C75.5154 4.36886 75.7652 4.63705 75.7652 5.37013V6.22837C76.7111 5.17345 78.1566 4.1543 80.6193 4.1543C84.2242 4.1543 85.7054 6.29989 85.7054 9.96527Z"/>
<path d="M87.5998 11.0023C87.5998 7.06872 90.9191 4.1543 95.327 4.1543C99.6993 4.1543 103.001 7.06872 103.001 11.0023C103.001 14.9538 99.6814 17.8682 95.327 17.8682C90.9191 17.8682 87.5998 14.9538 87.5998 11.0023ZM99.9669 11.0023C99.9669 8.71367 97.9504 7.05084 95.327 7.05084C92.6502 7.05084 90.6336 8.73155 90.6336 11.0023C90.6336 13.3088 92.6502 14.9895 95.327 14.9895C97.9682 14.9895 99.9669 13.3088 99.9669 11.0023Z"/>
</svg>
